<svg xmlns="http://www.w3.org/2000/svg" width="1024" height="1024" viewBox="18 18 72 72"><rect x="0" y="0" width="108" height="108" fill="#161614"/><path d="M29,54 A25,25 0 1 1 79,54 A25,25 0 1 1 29,54 Z" fill="none" stroke="#2C2B28" stroke-width="6" stroke-linecap="round" stroke-linejoin="round"/><path d="M54.000,29.000 A25,25 0 1 1 29.243,57.479" fill="none" stroke="#6CC791" stroke-width="6" stroke-linecap="round" stroke-linejoin="round"/><path d="M38,54 A16,16 0 1 1 70,54 A16,16 0 1 1 38,54 Z" fill="#F6F4EF"/><path d="M49.4,44.5 V52 Q49.4,55.6 54,55.6 Q58.6,55.6 58.6,52 V44.5" fill="none" stroke="#161614" stroke-width="2.3" stroke-linecap="round" stroke-linejoin="round"/><path d="M54,44.5 V55.6" fill="none" stroke="#161614" stroke-width="2.3" stroke-linecap="round" stroke-linejoin="round"/><path d="M54,55.6 V65.5" fill="none" stroke="#161614" stroke-width="3.2" stroke-linecap="round" stroke-linejoin="round"/></svg>
